<!--?xml version="1.0" standalone="no"?-->
              <svg id="sw-js-blob-svg" viewBox="0 0 100 100" xmlns="http://www.w3.org/2000/svg" version="1.1">
                    <defs> 
                        <linearGradient id="sw-gradient" x1="0" x2="1" y1="1" y2="0">
                            <stop id="stop1" stop-color="rgba(248, 117, 55, 1)" offset="0%"></stop>
                            <stop id="stop2" stop-color="rgba(251, 168, 31, 1)" offset="100%"></stop>
                        </linearGradient>
                    </defs>
                <path fill="url(#sw-gradient)" d="M16.4,-21.5C20.9,-15.7,24,-10.2,22.9,-5.7C21.7,-1.1,16.3,2.6,12.8,6.1C9.3,9.7,7.6,13,3.6,17.9C-0.3,22.7,-6.6,29.1,-11.6,28.6C-16.6,28.2,-20.2,21,-21,14.6C-21.9,8.1,-19.9,2.5,-17.4,-1.7C-15,-5.8,-12.2,-8.5,-9.3,-14.7C-6.3,-20.8,-3.1,-30.3,1.4,-31.9C5.9,-33.6,11.8,-27.4,16.4,-21.5Z" width="100%" height="100%" transform="translate(50 50)" stroke-width="0" style="transition: all 0.3s ease 0s;" stroke="url(#sw-gradient)"></path>
              </svg>