<!--?xml version="1.0" standalone="no"?-->
              <svg id="sw-js-blob-svg" viewBox="0 0 100 100" xmlns="http://www.w3.org/2000/svg" version="1.1">
                    <defs> 
                        <linearGradient id="sw-gradient" x1="0" x2="1" y1="1" y2="0">
                            <stop id="stop1" stop-color="rgba(248, 117, 55, 1)" offset="0%"></stop>
                            <stop id="stop2" stop-color="rgba(251, 168, 31, 1)" offset="100%"></stop>
                        </linearGradient>
                    </defs>
                <path fill="url(#sw-gradient)" d="M18.4,-19.6C25.8,-15.6,35.2,-11.8,37.3,-5.8C39.3,0.3,34,8.4,28,13.7C22,19,15.4,21.5,8.2,25.4C1,29.3,-6.8,34.6,-15.1,34.6C-23.5,34.5,-32.4,29.2,-37.2,21.3C-42,13.4,-42.6,2.9,-38.6,-4.6C-34.7,-12.1,-26.2,-16.5,-19,-20.5C-11.8,-24.5,-5.9,-28,-0.2,-27.7C5.5,-27.5,10.9,-23.5,18.4,-19.6Z" width="100%" height="100%" transform="translate(50 50)" stroke-width="0" style="transition: all 0.3s ease 0s;"></path>
              </svg>